<?xml version="1.0" standalone="no"?><!DOCTYPE svg PUBLIC "-//W3C//DTD SVG 1.1//EN" "http://www.w3.org/Graphics/SVG/1.1/DTD/svg11.dtd"><svg t="1683421765148" class="icon" viewBox="0 0 1024 1024" version="1.1" xmlns="http://www.w3.org/2000/svg" p-id="2975" xmlns:xlink="http://www.w3.org/1999/xlink" width="200" height="200"><path d="M607.2 891.6H440.5c-27 0-48.9-21.9-48.9-48.9V676.1c0-27 21.9-48.9 48.9-48.9h166.7c27 0 48.9 21.9 48.9 48.9v166.7c0 26.9-22 48.8-48.9 48.8zM440.5 659.4c-9.2 0-16.7 7.5-16.7 16.7v166.7c0 9.2 7.5 16.7 16.7 16.7h166.7c9.2 0 16.7-7.5 16.7-16.7V676.1c0-9.2-7.5-16.7-16.7-16.7H440.5z" fill="#EF7F1A" p-id="2976"></path><path d="M518.7 130.5c-85.6 0-156.3 65.5-164.4 149h-77.8c-8.7 0-16.2 6.7-16.6 15.4-0.4 9.2 7 16.8 16.1 16.8H667.8c8.9 0 16.2-7.3 16.2-16.2-0.2-90.9-74.3-165-165.3-165z m-132 149.1c8-65.8 64.1-116.9 131.9-116.9s124 51.1 132 116.8c0 0 0 0.1-0.1 0.1H386.7zM711.7 573.7c-44-46.9-103.5-75.2-167.5-79.5-71.4-4.9-139 18.9-190.4 66.9-25.2 23.6-45.1 51.6-59 83.4-14.4 32.8-21.6 68.1-21.6 104.7v70.2c0 39.9 32.3 72.2 72.2 72.2 7.7 0 13.9-6.2 13.9-13.9v-4.3c0-7.7-6.2-13.9-13.9-13.9-22.1 0-40-17.9-40-40v-70.2c0-32.2 6.4-63.1 18.9-91.8 12.1-27.7 29.4-52.2 51.5-72.8 41-38.3 93.8-58.9 150.2-58.9 5.3 0 10.6 0.2 15.9 0.5 55.8 3.8 107.7 28.5 146.2 69.4 38.1 40.6 59.2 93.4 59.8 149 0 0.4 0 0.9-0.1 1.3v73.4c0 22.1-17.9 40-40 40h-5.7c-7.7 0-13.9 6.2-13.9 13.9v4.3c0 7.7 6.2 13.9 13.9 13.9h5.7c39.9 0 72.2-32.3 72.2-72.2v-70.6c0.1-0.6 0.1-1.2 0.1-1.8 0.1-64.5-24.2-126.1-68.4-173.2zM652.8 343.8c-6.2 0-11.8 3.6-14.5 9.1-21.5 44.6-67.2 75.5-119.9 75.5S420 397.6 398.5 353c-2.7-5.6-8.3-9.1-14.5-9.1-11.9 0-19.7 12.4-14.5 23.1 26.7 55.4 83.4 93.8 148.9 93.8s122.3-38.3 148.9-93.8c5.2-10.8-2.6-23.2-14.5-23.2z" fill="#333333" p-id="2977"></path></svg>