<?xml version="1.0" standalone="no"?><!DOCTYPE svg PUBLIC "-//W3C//DTD SVG 1.1//EN" "http://www.w3.org/Graphics/SVG/1.1/DTD/svg11.dtd"><svg t="1683354211550" class="icon" viewBox="0 0 1149 1024" version="1.1" xmlns="http://www.w3.org/2000/svg" p-id="1622" xmlns:xlink="http://www.w3.org/1999/xlink" width="224.4140625" height="200"><path d="M1124.361748 743.399573c-27.979332 0.832718-57.99562-1.819169-78.839198-12.644506-37.831029-19.677772-52.525302-79.338829-66.886489-119.475846q-20.305513-56.458295-40.611026-112.929401l-47.746781 15.37326c6.085248-1.998524 12.119253-4.073914 18.050768-6.149304 57.086036-19.985237 122.294277-48.489822 136.386432-107.305349 5.957138-24.90468 1.165805-50.975165-3.984236-76.059201-21.983761-107.087562-58.264653-200.723522-92.828864-304.428966-64.4652 28.530207-365.114907 129.827174-365.114907 129.827175 24.968735 88.537162 58.59774 185.760216 97.082132 269.32669 18.4351 40.021718 41.200335 82.170071 81.209242 100.617982s85.834031 8.30156 128.507636-5.636862l-4.214835 1.357972 64.542067 200.121402c5.278152 15.949756 6.174926 33.219051 1.357971 49.296918-7.917229 26.377951-34.871676 44.697751-56.176452 62.082345-8.878057 7.251054-1.58857 21.356019 9.492988 18.447911 61.249627-16.090678 132.658416-42.507062 192.960026-67.206765 8.083772-3.318062 20.13897-8.532159 31.950757-14.630218 9.915752-5.150042 6.09806-20.318324-5.137231-19.985237zM121.256582 456.688288c-11.465889 42.532684-20.99731 89.48518-2.088201 129.276299s60.929351 61.493037 102.821482 78.147401l-4.624788-1.870413-78.647032 195.061038c-6.162115 15.616669-16.526254 29.465414-30.541542 38.714991-22.970212 15.181094-55.407789 11.991142-82.900301 11.696488-11.453078-0.115299-14.912061 15.373259-4.535111 20.241458 57.355068 26.903204 129.109756 52.333137 191.230534 71.998098 8.339993 2.639076 20.933255 6.405525 33.898037 9.236766 10.979069 2.434099 17.768925-11.658055 8.967734-18.601644-22.022194-17.282106-43.365402-38.548448-52.435625-60.211932-16.449387-39.342733 10.530683-94.532733 25.160901-134.592884l41.149091-112.737235-46.516921-18.819431c5.969949 2.370044 11.939898 4.650411 17.832981 6.853911 56.52235 21.24072 124.882109 41.110657 173.346309 4.983498 20.497679-15.373259 33.552138-38.433148 45.671391-60.954973 51.705395-96.339091 83.822696-191.4227 123.703493-293.270542-67.770451-19.383118-363.526337-134.157309-363.526337-134.157309-37.536375 83.98924-74.009432 180.187409-97.966095 269.006415z" fill="#FFFFFF" p-id="1623"></path><path d="M1044.715454 400.332482c-14.092154 58.789906-79.300396 87.307301-136.347998 107.241294-47.721159 16.590309-101.20729 33.180618-147.263013 11.939898-40.008907-18.345423-62.774142-60.545019-81.196431-100.553926-22.111871-47.874891-42.48144-100.259272-60.67313-152.938308 13.092892-8.147827 30.118777-11.35059 45.837935-9.749208 25.622099 2.56221 48.886964 15.129849 72.613028 25.03279s50.05277 17.935469 74.790906 10.761282c37.549186-10.761281 65.631006-53.985762 104.333186-48.015814 20.664223 3.202762 36.088726 20.074914 54.126684 30.989929 19.062841 11.529944 40.457294 15.860079 62.287322 14.988928 2.56221 11.209668 5.239719 22.701179 7.558519 34.19269 5.034742 25.03279 9.838886 51.077654 3.932992 76.110445zM546.698721 415.897907c-25.891131 67.527041-52.089727 133.145236-87.589145 199.211817-12.221741 22.521825-25.173712 45.684202-45.697013 60.954973-48.451389 36.088726-116.849581 16.295655-173.448797-4.945065-47.298394-17.756114-99.093467-39.43241-120.782574-85.129423-18.909109-39.867986-9.454554-86.717993 2.036957-129.391598 3.497416-12.811049 7.276676-25.76302 11.209668-38.855913 27.940899 11.529944 53.396454 32.155734 83.37431 31.143661 40.89287-1.601381 74.944639-44.236553 115.299444-36.524302 26.044863 4.945065 44.236553 29.824123 69.563998 37.395453 31.681725 9.364877 63.709349-9.992619 93.802504-23.508275 15.860079-7.007644 35.063842-11.658055 52.230648-10.351328z" fill="#ED758D" p-id="1624"></path><path d="M601.696556 259.705593h-0.076867l3.843315 10.979069c1.434838 4.15078 2.908108 8.070961 4.355757 12.183308 2.56221 7.263865 5.12442 14.489297 7.68663 21.625051 2.165067 5.918705 4.330135 11.734921 6.508013 17.525516 2.434099 6.495202 4.893821 12.887916 7.366353 19.216574 2.305989 5.931516 4.611978 11.83741 6.930778 17.615193 2.56221 6.315847 5.12442 12.465151 7.686629 18.614455 2.165067 5.188475 4.317324 10.466627 6.482391 15.51418 4.714466 10.953447 9.428932 21.637862 14.169021 31.937947l0.140922 0.281843c14.438053 31.233338 31.848269 64.939209 59.046126 88.39624 0.102488 0.089677 0.230599 0.166544 0.345898 0.256221a125.317685 125.317685 0 0 0 13.208192 10.043863 118.207553 118.207553 0 0 0 15.591047 8.724325c16.282844 7.648196 34.692322 11.491511 54.69037 11.491511 22.227171 0 44.467152-4.5223 66.181881-10.748471l60.211932 186.605746c4.599167 13.874366 5.021931 27.902466 1.281105 40.53416-5.547184 18.499155-24.340994 33.436839-42.545495 47.874891-3.036219 2.408477-6.021193 4.76571-8.903679 7.135755a25.160901 25.160901 0 0 0 15.847268 44.633696 25.506799 25.506799 0 0 0 6.546446-0.84553c67.296442-17.679248 143.060988-46.63222 194.727951-67.821695 8.250316-3.356495 20.677034-8.724325 33.142184-15.155471a25.122468 25.122468 0 0 0-12.196119-47.400883c-31.335827 0.948018-56.022719-2.882486-71.741876-11.017502-26.992881-14.092154-41.571855-57.406312-53.281154-92.239556-2.267556-6.71299-4.445434-13.195381-6.610502-19.216574l-36.575546-101.681299c32.680987-14.438053 62.940686-32.821908 82.733757-58.687417 1.012073-1.281105 1.870413-2.715942 2.818431-4.061103 1.281105-1.806358 2.56221-3.574283 3.779259-5.457507a111.866083 111.866083 0 0 0 5.585618-10.095107v-0.102488a109.867559 109.867559 0 0 0 7.801929-21.61224c0.076866-0.320276 0.204977-0.61493 0.281843-0.948018 0.294654-1.191428 0.435576-2.395666 0.678986-3.599905 5.25253-25.788642 1.127372-50.987976-4.496679-78.711087-2.357233-11.645244-5.034742-23.277677-7.686629-34.589833l-2.651887-11.824599h-0.269032c-16.654364-66.873678-37.984761-129.263488-60.442531-194.522974-7.391975-21.471319-14.860817-43.160425-22.252793-65.336351L956.575434 0l-14.617407 6.405525c-63.107229 27.940899-360.861639 128.341093-363.833802 129.391598l-13.118515 4.419812 3.753638 13.323492c10.120729 35.960616 21.163854 71.575333 32.937208 106.165166z m424.737531 67.373308c1.83198 8.967735 3.471794 17.487082 4.65041 25.801454 2.190689 15.552614 2.715942 30.131588-0.576497 43.993143-0.102488 0.422765-0.269032 0.807096-0.384331 1.281105a74.534685 74.534685 0 0 1-2.4341 7.968473c-0.115299 0.307465-0.269032 0.589308-0.384331 0.896774a82.592835 82.592835 0 0 1-3.446172 7.763495c-0.461198 0.909585-1.037695 1.742303-1.524515 2.626266-1.050506 1.857602-2.062579 3.740826-3.241196 5.521562-22.662746 34.282368-70.063629 54.959402-115.568476 70.870725-5.265341 1.83198-10.594738 3.651149-15.949757 5.419074-25.967997 8.557781-52.691846 15.770402-77.865558 15.770402-15.962568 0-29.900989-2.844053-42.60955-8.711514-36.13997-16.564687-57.175713-56.906681-74.035054-93.430983-4.381379-9.480177-8.749947-19.331873-13.092893-29.465414-2.126634-4.932254-4.240457-10.069485-6.405524-15.129849-2.2035-5.265341-4.407001-10.517872-6.610502-15.924134-2.293178-5.675295-4.573545-11.529944-6.853911-17.307728-2.088201-5.342208-4.176402-10.697226-6.264603-16.154733s-4.253268-11.286534-6.405525-16.987452q-3.42055-9.223956-6.789856-18.665699c-1.152994-3.228384-2.305989-6.482391-3.446172-9.736397a64.490823 64.490823 0 0 1 26.237029-2.792809c18.037958 1.844791 35.320063 9.467365 53.614241 17.538327 4.957876 2.177878 9.902941 4.368568 14.77114 6.405524 14.796762 6.303036 37.152043 14.694274 60.211932 14.694274a87.204813 87.204813 0 0 0 24.225695-3.318062c17.743303-5.12442 32.655365-15.731969 47.080606-26.019241 17.781737-12.503584 34.051769-24.123206 51.180142-21.560996 10.697226 1.652625 20.779522 9.121467 31.425504 17.013073 5.521562 4.086725 11.222479 8.314371 17.410216 12.068009a121.435937 121.435937 0 0 0 57.777833 17.038696c1.716681 7.545708 3.715204 14.873628 5.303775 22.58588z m-61.493037 289.068518c2.126634 5.867461 4.227646 12.144875 6.405524 18.665699 13.387547 39.791119 30.041911 89.331447 67.462986 108.791432 16.97464 8.826813 39.906419 13.630957 68.346949 14.348375-5.790594 2.56221-11.055936 4.842577-15.193905 6.546446-46.235077 18.934731-111.891705 44.159687-172.795434 61.569903 18.934731-15.232338 38.638125-32.757853 45.978856-57.252579a96.08287 96.08287 0 0 0-1.434837-57.931565l-60.096633-186.323902c3.17714-1.076128 6.405525-2.165067 9.492988-3.254007 5.201286-1.819169 10.428194-3.728015 15.655102-5.688106zM939.024297 39.240244q8.660269 25.622099 17.346161 50.718945c21.36883 62.120778 41.648722 121.704969 57.713777 184.581599a90.881584 90.881584 0 0 1-35.678773-11.939898c-5.201286-3.164329-10.171973-6.866722-15.129849-10.543494-12.426718-9.198333-26.49325-19.626528-44.31342-22.393714-28.517396-4.381379-51.039221 11.529944-72.356806 26.685416-13.003215 9.262389-25.263389 18.025146-38.215361 21.778784-20.677034 5.918705-48.579499-3.151518-65.169808-10.24884-4.791332-1.998524-9.544232-4.099536-14.322753-6.213359-19.549661-8.621836-39.778308-17.538327-62.415433-19.857126a92.367666 92.367666 0 0 0-38.561258 4.483867c-9.608287-28.543018-18.819432-57.765022-27.364402-87.320112 55.138756-18.67851 263.292687-89.446747 338.467925-119.732068zM14.553352 941.13812c63.043174 29.580713 139.794171 55.830553 193.024081 72.689894 8.532159 2.69032 21.548185 6.533635 35.153519 9.569854a25.506799 25.506799 0 0 0 5.534374 0.602119 25.122468 25.122468 0 0 0 15.501369-44.838673c-24.584404-19.29344-41.187524-38.100061-47.99019-54.370093-11.760543-28.184309 4.842577-70.768237 18.178879-105.050605 2.56221-6.584879 5.021931-12.93916 7.225431-18.960353l37.023933-101.412267c22.560258 6.508013 46.119778 11.248101 69.282155 11.248102 29.170759 0 54.267605-7.68663 74.624363-22.854913a114.658892 114.658892 0 0 0 15.206715-13.759067c15.104227-16.154733 25.622099-35.550662 34.589834-51.935994 10.082296-18.768187 19.395929-37.587619 28.184308-56.368617 0.538064-1.127372 1.050506-2.267556 1.575759-3.394928q5.483129-11.786165 10.697227-23.508276 1.537326-3.458983 3.049029-6.943588 4.496678-10.248839 8.839624-20.497679c1.050506-2.498155 2.101012-4.983498 3.138707-7.481653 2.997786-7.186999 5.931516-14.322753 8.814002-21.458508 0.73023-1.793547 1.473271-3.599905 2.19069-5.393452 7.57133-18.857865 14.835195-37.510753 21.85565-55.817742l6.994833-18.242934h-0.064055l4.291701-11.299346c8.083772-21.266342 16.270033-42.763283 24.815003-64.567688l5.841838-14.860818-15.373259-4.39419c-66.374047-18.973164-359.324313-132.594361-362.283665-133.734544l-12.900727-5.00912-5.649672 12.631694c-32.668176 73.12547-61.185572 148.108542-82.669702 216.506735l-0.166544-0.064056-4.611977 15.37326c-0.294654 0.97364-0.538064 1.921657-0.832719 2.895297-2.56221 8.737136-5.060365 17.269295-7.417597 25.737398-0.999262 3.523039-2.101012 7.097321-3.061841 10.607549-7.904417 29.439791-14.309942 59.737923-13.028837 88.857438 0.755852 17.448649 4.27889 34.461723 11.927087 50.578023a119.732067 119.732067 0 0 0 9.352066 16.026623c19.485606 28.56864 49.963093 47.11904 83.156521 61.826124l-73.343257 181.916901c-5.36783 13.592523-14.002477 24.622837-25.032791 31.912324-16.077867 10.633171-40.098585 10.031052-63.312206 9.505799-3.843315-0.089677-7.68663-0.179355-11.401834-0.217788a25.160901 25.160901 0 0 0-10.876581 47.964569z m120.769762-480.657761c1.960091-7.302298 4.137969-14.809573 6.303037-22.329659 2.959352 1.498893 5.944327 3.061841 8.967734 4.663221 19.383118 10.184784 39.43241 20.702656 63.043174 20.702656h2.715943c21.906894-0.845529 40.77757-10.953447 59.007693-20.728278 18.652888-9.979807 35.422552-19.421551 52.948067-16.026622 10.74847 2.036957 20.817955 9.198333 31.476749 16.795285 11.068747 7.827551 22.521825 16.001001 36.690845 20.203025a76.30261 76.30261 0 0 0 21.48413 3.036219c24.558782 0 47.298394-10.761281 69.282155-21.163854 4.432623-2.101012 8.826813-4.176402 13.06727-6.085248a115.619721 115.619721 0 0 1 24.571593-7.68663l-1.883225 4.906632q-6.495202 16.654364-13.323491 33.603383c-1.58857 3.90737-3.202762 7.801929-4.804143 11.696488q-6.046815 14.719896-12.45234 29.567902c-1.498893 3.471794-2.946541 6.930778-4.471057 10.389761-5.214097 11.875843-10.697226 23.790119-16.346899 35.691583-2.049768 4.317324-4.15078 8.634647-6.264603 12.951971q-7.532897 15.373259-15.642291 30.746519c-1.191428 2.241934-2.280367 4.483867-3.497416 6.738612-12.362663 23.059889-24.007907 43.09637-41.546234 56.16364-15.373259 11.529944-34.128636 17.115562-57.188524 17.115562-33.82117 0-70.742615-12.144875-102.398718-24.020718-44.403097-16.654364-88.947116-36.165592-109.483228-72.203074-1.063317-1.857602-2.344422-3.548661-3.266817-5.49594a97.697062 97.697062 0 0 1-8.506537-31.553615c-3.100274-28.645506 3.932992-59.622624 11.517133-87.678821zM226.909306 206.257895c54.293227 20.99731 259.474994 99.926185 336.597512 124.882109-6.546446 16.961829-12.913538 33.616194-19.229386 50.270558-2.56221 6.71299-5.12442 13.361924-7.686629 20.010859a134.516018 134.516018 0 0 0-48.143924 11.529944c-4.509489 2.036957-9.070223 4.202024-13.6822 6.405525-19.088464 9.044601-38.804669 18.383856-56.829815 18.383856a46.747519 46.747519 0 0 1-13.208192-1.83198c-9.51861-2.856864-18.537588-9.2752-28.081821-16.065056-12.746994-9.083034-25.916753-18.460722-42.904204-21.689107a67.091466 67.091466 0 0 0-12.631695-1.191427c-21.868461 0-40.995358 10.248839-59.507324 20.164591-16.052245 8.596214-31.194905 16.654364-46.350376 17.294917h-1.639815c-16.423765 0-32.501632-8.42967-49.527517-17.358972a509.649166 509.649166 0 0 0-14.002477-7.148565c20.049292-64.234602 46.452865-134.516018 76.827863-203.657252zM116.209029 908.162479a95.993193 95.993193 0 0 0 35.999049-45.41517l73.25358-181.635058c3.125896 1.21705 6.251792 2.459721 9.390499 3.638338 5.12442 1.908846 10.248839 3.843315 15.62948 5.675295l-36.639601 100.36176c-2.126634 5.829027-4.535111 11.991142-7.007644 18.383856-15.245149 39.150567-34.205502 87.870988-17.935469 126.829389 7.379164 17.628004 21.906894 35.999049 43.275725 54.767236-6.085248-1.678247-11.529944-3.330873-15.834457-4.688844-47.605859-15.065794-114.184883-37.754162-172.142071-63.414694 24.315372 0.37152 50.680511-0.409954 72.010909-14.502108zM596.892412 527.76399l-28.837672-3.856126-10.37695 77.686203 28.850483 3.856126 10.364139-77.686203zM628.356349 518.706578a2095.964543 2095.964543 0 0 1 101.963142 184.261323l26.147352-12.811049a2130.47751 2130.47751 0 0 0-103.423601-186.861966zM357.351411 138.825655l20.408002-20.7539 57.116782 56.167484-20.408001 20.7539zM498.042355 201.466562l28.389286-6.405524c-2.69032-11.798976-5.406263-23.303299-8.083772-34.743566-8.42967-35.781261-16.385332-69.58962-23.239244-110.495301l-28.709562 4.804144c7.007644 41.853698 15.450126 77.699014 23.610764 112.352902 2.69032 11.337779 5.36783 22.765235 8.032528 34.487345z" fill="#684C4B" p-id="1625"></path></svg>