<?xml version="1.0" standalone="no"?><!DOCTYPE svg PUBLIC "-//W3C//DTD SVG 1.1//EN" "http://www.w3.org/Graphics/SVG/1.1/DTD/svg11.dtd"><svg t="1684481465407" class="icon" viewBox="0 0 1024 1024" version="1.1" xmlns="http://www.w3.org/2000/svg" p-id="3511" xmlns:xlink="http://www.w3.org/1999/xlink" width="200" height="200"><path d="M231.1 390.5s-16 204 206 270c0 0 188 36 308-106l56-162s-118 66-160 66-184-126-216-108c0 0-172 18-194 40z" fill="#73D37A" p-id="3512"></path><path d="M632.3 469.5c-42.2 0-80.5-16.9-113.9-50.3-33.9-33.9-62.1-49.5-94.1-52.2-32-2.6-68.8 7.1-119.8 20.6-28.7 7.6-46.2 16.2-84.6 24.4l-4.5-35.2c37.6-8 51.7-16.5 79.9-24 105.9-28 164.2-43.5 248.6 40.9 27.3 27.3 58.3 40.7 92.1 39.7 75.6-2.2 144.4-73.2 163.7-94.9l3.5 39.3c-27.8 31.3-78.6 89.1-166.1 91.6-1.7 0.1-3.2 0.1-4.8 0.1z" fill="#0C0C0C" p-id="3513"></path><path d="M223.1 867a293.9 48 0 1 0 587.8 0 293.9 48 0 1 0-587.8 0Z" fill="#FFB001" p-id="3514"></path><path d="M517 933c-79.4 0-154.3-5.1-210.7-14.3-70.9-11.6-101.2-27-101.2-51.7s30.3-40.1 101.2-51.7c56.4-9.2 131.2-14.3 210.7-14.3s154.3 5.1 210.7 14.3c70.9 11.6 101.2 27 101.2 51.7s-30.3 40.1-101.2 51.7C671.3 928 596.4 933 517 933z m-268.8-66c10.4 4.7 32.6 11.9 78.1 18.3C379 892.9 446.7 897 517 897s138-4.1 190.7-11.7c45.5-6.5 67.7-13.7 78.1-18.3-10.4-4.7-32.6-11.9-78.1-18.3-52.7-7.5-120.4-11.7-190.7-11.7s-138 4.1-190.7 11.7c-45.5 6.5-67.7 13.7-78.1 18.3z" fill="#0C0C0C" p-id="3515"></path><path d="M533.1 861.6v-172.7c73-4.7 141-35.3 193.2-87.6 55.3-55.3 83.9-128.4 88.1-206.2v-2.8c0-1.3 0.1-2.6 0.1-4 0-1.5-0.7-4.5-1.2-6.6-14-60.6-27.5-247.1-27.5-247.1-1.1-10-9.6-17.5-19.6-17.5h-506.3c-10.1 0-18.5 7.6-19.6 17.5l-28.6 256.5c-0.2 1.6-0.2 3.2 0 4.8 0.4 3.1 0.8 6.2 1 9.4 4.1 74.1 34.8 143.2 87.7 196.1 52.2 52.2 120.2 82.8 193.2 87.5v172.5m-89.5-231.3c-29-13.1-55.3-31.4-78.2-54.3-46.2-46.2-73.7-107.5-77.2-172.6-0.2-3.7-0.6-7.1-1-10.1l26.8-240.1h476.6c3.7 47 15 184.2 27.2 236.7 0.1 0.3 0.1 0.6 0.2 0.9V393.3c-4 72.6-30.8 135.7-77.6 182.5-22.9 22.9-49.2 41.1-78.2 54.3-28.9 13.1-59.8 20.8-91.9 22.8l-17.5 1.1-17.4-1.1c-32-2-62.9-9.7-91.8-22.8z" fill="#0C0C0C" p-id="3516"></path></svg>