<?xml version="1.0" standalone="no"?><!DOCTYPE svg PUBLIC "-//W3C//DTD SVG 1.1//EN" "http://www.w3.org/Graphics/SVG/1.1/DTD/svg11.dtd"><svg t="1684481586115" class="icon" viewBox="0 0 1024 1024" version="1.1" xmlns="http://www.w3.org/2000/svg" p-id="3940" xmlns:xlink="http://www.w3.org/1999/xlink" width="200" height="200"><path d="M276.48 143.36v301.056c0 124.928 110.592 225.28 235.52 225.28s235.52-100.352 235.52-225.28V143.36h-471.04z" fill="#A2212D" p-id="3941"></path><path d="M452.608 380.928c-71.68 0-94.208 40.96-94.208 40.96v8.192c0 86.016 67.584 155.648 153.6 155.648s153.6-69.632 153.6-155.648v-14.336s-24.576 24.576-75.776 24.576c-49.152-2.048-65.536-59.392-137.216-59.392z" fill="#F1ECE4" p-id="3942"></path><path d="M483.328 628.736h47.104v266.24h-47.104z" fill="#A2212D" p-id="3943"></path><path d="M587.776 921.6h-161.792s0-47.104 81.92-47.104c75.776 0 79.872 47.104 79.872 47.104z" fill="#A2212D" p-id="3944"></path></svg>