<?xml version="1.0" standalone="no"?><!DOCTYPE svg PUBLIC "-//W3C//DTD SVG 1.1//EN" "http://www.w3.org/Graphics/SVG/1.1/DTD/svg11.dtd"><svg t="1684481572750" class="icon" viewBox="0 0 1024 1024" version="1.1" xmlns="http://www.w3.org/2000/svg" p-id="3798" xmlns:xlink="http://www.w3.org/1999/xlink" width="200" height="200"><path d="M 298.8 81.3 c -3.1 0 -5.9 0.8 -8.4 2.6 c -2.5 1.5 -4.4 3.7 -5.8 6.6 c -24.7 54.1 -37.1 115.2 -37.1 183.3 c 0 29.6 2.3 57.7 7 84.6 c 10.7 61.8 33.6 116.7 68.7 164.7 c 31.1 42.1 66 71.7 104.8 88.5 c 0.7 0.6 1.5 1.1 2.3 1.5 c 37.8 17.3 59.8 41.5 66.2 72.5 V 840 c -4.3 37.9 -24.4 61.8 -60.2 71.6 H 332.7 c -4.2 0 -7.9 1.6 -10.9 4.7 c -3.1 3 -4.7 6.6 -4.7 10.9 c 0 4.2 1.6 7.9 4.7 10.9 c 3 3 6.7 4.6 10.9 4.6 h 358.6 c 4.2 0 7.9 -1.6 10.9 -4.6 c 3.1 -3 4.6 -6.7 4.6 -10.9 c 0 -4.3 -1.5 -7.9 -4.6 -10.9 c -3 -3.1 -6.7 -4.7 -10.9 -4.7 H 587.7 c -35.9 -9.8 -56 -33.6 -60.1 -71.3 V 685.7 c 6.3 -31 28.4 -55.2 66.1 -72.5 c 0.8 -0.4 1.6 -0.7 2.4 -1.2 c 38.7 -17 73.6 -46.7 104.7 -88.8 c 35.1 -48.2 58 -103.1 68.8 -164.7 c 4.6 -26.9 6.9 -55 6.9 -84.6 c 0 -68.1 -12.4 -129.2 -37.2 -183.3 c -1.3 -2.9 -3.2 -5.1 -5.7 -6.6 c -2.5 -1.8 -5.3 -2.6 -8.4 -2.6 H 298.8 Z m -13.3 274.6 c -0.2 -0.9 -0.3 -1.9 -0.3 -2.8 c -0.7 -4.1 -1.4 -8.3 -1.9 -12.5 c -3.2 -21.3 -4.7 -43.5 -4.7 -66.7 c 0 -59.4 10 -113.3 30.2 -161.4 h 406.4 c 20.1 48.1 30.2 102 30.2 161.4 c 0 23.2 -1.5 45.4 -4.4 66.7 c -0.6 4.2 -1.3 8.4 -1.9 12.5 c -0.3 0.9 -0.4 1.9 -0.6 2.8 c -2.8 15.4 -6.3 30.4 -10.8 44.9 c -11.6 37.8 -29 72.4 -52 103.9 c -45.2 61.6 -99.8 92.6 -163.7 93 c -63.9 -0.4 -118.4 -31.4 -163.4 -93 c -23.1 -31.5 -40.5 -66.1 -52.1 -103.9 c -4.5 -14.5 -8.2 -29.5 -11 -44.9 Z" fill="#626161" p-id="3799"></path><path d="M 285.2 353 c 0 0.9 0.1 1.9 0.3 2.8 c 2.8 15.4 6.5 30.4 11 44.9 h 431.2 c 4.5 -14.5 8 -29.5 10.8 -44.9 c 0.2 -0.9 0.3 -1.9 0.6 -2.8 c 0.6 -4.1 1.3 -8.3 1.9 -12.5 H 283.3 c 0.5 4.3 1.2 8.5 1.9 12.5 Z" fill="#979fcf" p-id="3800"></path><path d="M 348.6 504.6 c 45 61.6 99.5 92.6 163.4 93 c 63.9 -0.4 118.5 -31.4 163.7 -93 c 23 -31.5 40.4 -66.1 52 -103.9 H 296.5 c 11.6 37.8 29 72.4 52.1 103.9 Z" fill="#eb9fab" p-id="3801"></path></svg>